<svg xmlns="http://www.w3.org/2000/svg" width="32" height="32" fill-rule="evenodd" stroke-linejoin="round" stroke-miterlimit="2" clip-rule="evenodd" id="comment"><path fill="#64dd17" d="M12.586 24H7a3 3 0 0 1-3-3V9c0-.796.316-1.559.879-2.121A2.996 2.996 0 0 1 7 6h18c.796 0 1.559.316 2.121.879C27.684 7.441 28 8.204 28 9v12a3 3 0 0 1-3 3h-5.586l-2.707 2.707a.999.999 0 0 1-1.414 0z"></path><path fill="#e1f5fe" d="M13 20.011h6a1 1 0 0 0 0-2h-6a1 1 0 0 0 0 2zm-4-4.005h14a1 1 0 0 0 0-2H9a1 1 0 0 0 0 2zM10 12h12a1 1 0 0 0 0-2H10a1 1 0 0 0 0 2z"></path></svg>